<svg width="24" height="25" fill="none" xmlns="http://www.w3.org/2000/svg"><path d="M12 0C5.373 0 0 5.594 0 12.495c0 6.9 5.373 12.494 12 12.494s12-5.594 12-12.494C23.993 5.597 18.625.007 12 0zm0 23.204c-5.68 0-10.286-4.795-10.286-10.71C1.714 6.58 6.32 1.785 12 1.785s10.286 4.796 10.286 10.71C22.28 18.408 17.678 23.199 12 23.205z" fill="#fff"/><path d="M12.714 6.248c-.473 0-.857.4-.857.893v6.247h-6c-.473 0-.857.4-.857.892 0 .493.384.893.857.893h6.857c.474 0 .857-.4.857-.893V7.14c0-.492-.383-.892-.857-.892z" fill="#fff"/></svg>