<svg width="26" height="24" fill="none" xmlns="http://www.w3.org/2000/svg"><path d="M13 0C7.96 0 3.86 3.785 3.86 8.438c0 1.571.471 3.105 1.364 4.436l7.256 10.794a.778.778 0 00.647.332h.006a.776.776 0 00.647-.342l7.071-10.898a7.943 7.943 0 001.29-4.322C22.14 3.785 18.04 0 13 0zm6.544 12.038l-6.429 9.908-6.596-9.813a6.628 6.628 0 01-1.146-3.695C5.373 4.56 8.8 1.396 13 1.396c4.2 0 7.622 3.163 7.622 7.04a6.622 6.622 0 01-1.078 3.601z" fill="#fff"/><path d="M13 4.219c-2.52 0-4.57 1.892-4.57 4.218 0 2.312 2.017 4.22 4.57 4.22 2.585 0 4.57-1.934 4.57-4.22 0-2.326-2.05-4.218-4.57-4.218zm0 7.04c-1.689 0-3.057-1.267-3.057-2.822 0-1.55 1.377-2.821 3.057-2.821s3.052 1.27 3.052 2.822c0 1.532-1.336 2.821-3.052 2.821z" fill="#fff"/></svg>