<svg width="91" height="83" fill="none" xmlns="http://www.w3.org/2000/svg"><g clip-path="url(#clip0)"><path d="M53.919.406A1.612 1.612 0 0155.47.072L80.327 7.63 88.031.602a1.623 1.623 0 012.126.017c.586.534.594 1.397.019 1.94l-7.702 7.026 8.285 22.671a1.3 1.3 0 01-.368 1.416L36.754 82.595c-.592.54-1.552.54-2.145 0L.28 51.284a1.298 1.298 0 010-1.956L53.92.406zM35.682 79.66l51.904-47.34-7.51-20.547-5.88 5.365c2.146 2.962 1.485 6.928-1.531 9.174-3.017 2.246-7.408 2.045-10.162-.467-2.754-2.512-2.974-6.517-.512-9.268 2.463-2.751 6.81-3.355 10.059-1.396l5.879-5.365L55.4 2.964 3.498 50.301l32.184 29.36zm33.254-57.73a1.623 1.623 0 01-2.126-.016 1.299 1.299 0 01-.019-1.94l3.021-2.757c-1.732-.77-3.81-.45-5.168.798-1.659 1.49-1.823 3.882-.379 5.55 1.444 1.666 4.032 2.076 6.007.948 1.974-1.128 2.702-3.43 1.688-5.342l-3.023 2.76z" fill="#323FEA"/></g><defs><clipPath id="clip0"><path fill="#fff" transform="matrix(-1 0 0 1 91 0)" d="M0 0h91v83H0z"/></clipPath></defs></svg>