<svg width="90" height="89" fill="none" xmlns="http://www.w3.org/2000/svg"><g clip-path="url(#clip0)" fill="#323FEA"><path d="M65.625 89C52.185 89 41.25 78.187 41.25 64.896c0-13.29 10.935-24.104 24.375-24.104S90 51.605 90 64.896C90 78.186 79.065 89 65.625 89zm0-44.5C54.255 44.5 45 53.648 45 64.896c0 11.247 9.255 20.396 20.625 20.396S86.25 76.143 86.25 64.896c0-11.248-9.255-20.396-20.625-20.396z"/><path d="M67.5 77.875h-5.625A1.865 1.865 0 0160 76.021c0-1.024.84-1.854 1.875-1.854H67.5c2.07 0 3.75-1.665 3.75-3.709 0-2.043-1.68-3.708-3.75-3.708h-5.625A1.865 1.865 0 0160 64.896V53.77c0-1.024.84-1.854 1.875-1.854h11.25c1.035 0 1.875.83 1.875 1.854 0 1.023-.84 1.854-1.875 1.854H63.75v7.417h3.75c4.136 0 7.5 3.326 7.5 7.416s-3.364 7.417-7.5 7.417zm-52.016-3.708a1.89 1.89 0 01-1.08-.338 1.844 1.844 0 01-.769-1.813l4.05-24.568L.536 30.06a1.843 1.843 0 01-.438-1.884 1.87 1.87 0 011.496-1.242l23.628-3.572L35.806 1.065c.615-1.305 2.775-1.305 3.39 0l10.583 22.298 23.628 3.572a1.843 1.843 0 011.058 3.126l-3.177 3.219a1.883 1.883 0 01-2.65.033 1.84 1.84 0 01-.03-2.622l.626-.634-21.008-3.174a1.864 1.864 0 01-1.414-1.046L37.5 6.219l-9.311 19.617a1.87 1.87 0 01-1.414 1.046l-21.011 3.17 15.262 15.471a1.85 1.85 0 01.51 1.595l-3.581 21.723 13.125-7.175a1.884 1.884 0 012.55.727 1.84 1.84 0 01-.731 2.518l-16.504 9.022c-.289.156-.6.234-.911.234z"/></g><defs><clipPath id="clip0"><path fill="#fff" d="M0 0h90v89H0z"/></clipPath></defs></svg>