<svg width="106" height="98" fill="none" xmlns="http://www.w3.org/2000/svg"><g clip-path="url(#clip0)"><path d="M106 16.806l-.002-.032a1.32 1.32 0 00-.01-.127l-.007-.045a1.068 1.068 0 00-.036-.158 1.604 1.604 0 00-.041-.12l-.008-.022-4.212-9.968c-.425-1.005-1.453-1.654-2.62-1.654h-7.669c-.836 0-1.514.626-1.514 1.4 0 .772.678 1.399 1.514 1.399h7.523l3.352 7.933H70.579L68.593 7.48h11.704c.836 0 1.514-.627 1.514-1.4 0-.773-.678-1.4-1.514-1.4H19.063c-1.167 0-2.195.65-2.62 1.655l-4.212 9.968-.008.023a1.306 1.306 0 00-.077.277l-.008.045a1.389 1.389 0 00-.009.127l-.002.032v20.564c0 .772.678 1.399 1.514 1.399s1.513-.627 1.513-1.4V18.211h32.084v21.27c0 .832.53 1.59 1.35 1.932a2.45 2.45 0 002.459-.346l8.016-6.566 8.017 6.565c.673.552 1.638.688 2.459.347.82-.342 1.35-1.1 1.35-1.931V18.21h32.084v62.766c0 1.004-.884 1.822-1.97 1.822H73.25l-.003-.048a4.688 4.688 0 00-.018-.375c2.606.638 5.39-.6 6.435-2.968a4.654 4.654 0 00-.197-4.195l-.034-.061a4.95 4.95 0 00-.193-.312l-.04-.058a5.017 5.017 0 00-.227-.304l-.004-.006a5.105 5.105 0 00-.25-.281c-.015-.017-.03-.034-.047-.05a5.182 5.182 0 00-.266-.256l-.054-.047a5.219 5.219 0 00-.298-.242l-.01-.008a5.389 5.389 0 00-.313-.214l-.058-.038a5.599 5.599 0 00-.33-.19c-.01-.004-.018-.01-.027-.015a5.044 5.044 0 001.473-1.905 4.655 4.655 0 00-.023-3.854c-.493-1.084-1.36-1.957-2.472-2.498a5.765 5.765 0 00-.491-.211l-23.557-8.88 10.965-3.139c2.609-.746 4.078-3.319 3.275-5.734-.3-.901-.893-1.662-1.66-2.217a5.414 5.414 0 00-4.182-.907l-.021.004c-.084.018-8.49 1.765-17.27 3.348a530.076 530.076 0 01-2.027.361l-.25.044a400.688 400.688 0 01-2.063.357c-11.025 1.878-14.123 1.911-14.982 1.804l-.01-.002a3.321 3.321 0 01-.063-.009l-.017-.002a1.255 1.255 0 01-.128-.028l-.248-.093.309-.7c.304-.69.3-1.447-.013-2.133a2.75 2.75 0 00-.283-.484 2.958 2.958 0 00-1.357-1.015l-8.13-3.065a3.218 3.218 0 00-2.305.012c-.742.288-1.318.827-1.622 1.515L.223 66.242c-.627 1.422.114 3.051 1.652 3.631l8.13 3.065c.372.14.756.206 1.134.206 1.189 0 2.318-.655 2.794-1.734l.075-.169 1.874.707h.004a16.875 16.875 0 014.874 2.838 16.226 16.226 0 011.468 1.395 15 15 0 01.337.375c2.083 2.402 4.814 4.286 7.897 5.448l2.11.795H17.123c-1.086 0-1.97-.817-1.97-1.82v-3.542c0-.773-.677-1.399-1.513-1.399-.836 0-1.514.626-1.514 1.4v3.54c0 2.548 2.242 4.62 4.997 4.62h22.872l19.498 7.35a5.797 5.797 0 002.05.373c2.148 0 4.19-1.183 5.05-3.134a4.66 4.66 0 00.37-2.44 6.042 6.042 0 003.02-.369c.968-.387 1.77-1.003 2.341-1.78h28.678c2.755 0 4.997-2.072 4.997-4.62V16.806zM52.641 7.48h12.845l1.985 7.933H50.655l1.986-7.933zm-5.093 7.933h-31.69l3.351-7.933h30.325l-1.986 7.933zm20.314 22.556l-7.28-5.963a2.396 2.396 0 00-1.518-.531 2.4 2.4 0 00-1.519.531l-7.28 5.963V18.21h17.597v19.757zM11.135 70.34l-8.104-3.055 9.93-22.516 8.105 3.055-9.93 22.516zm60.47 8.445l-1.736-.655-.003-.001-.002-.001-18.092-6.82c-.774-.292-1.657.051-1.973.767-.316.716.056 1.533.83 1.825l18.092 6.82c.076.028.149.06.22.094.02.01.038.022.057.032.05.026.1.052.147.081.022.014.043.03.065.045.042.027.084.055.123.084.024.018.046.038.069.057.035.03.07.057.104.088.023.02.043.044.066.066.03.03.061.06.09.091l.061.076c.026.031.053.062.077.094.02.028.037.056.056.084.021.032.044.064.064.097l.049.091c.017.033.036.065.052.099.015.032.027.065.04.098.014.033.03.066.041.1.012.033.021.068.031.102.01.034.022.067.03.102.009.034.014.07.021.104.007.035.015.07.02.105.005.035.007.07.01.106.003.036.007.071.009.107l-.001.105c0 .037 0 .073-.003.11-.002.034-.008.069-.012.104-.004.037-.007.074-.014.111-.006.034-.015.068-.023.102-.009.038-.016.076-.027.113-.01.033-.022.066-.034.1-.012.037-.024.074-.04.111a2.271 2.271 0 00-.037.077l-.006.018c-.237.505-.673.906-1.243 1.133a2.756 2.756 0 01-1.97.023l-3.206-1.208c-.015-.006-.03-.01-.045-.014l-.045-.02-14.715-5.547c-.774-.292-1.657.052-1.973.767-.316.716.056 1.533.83 1.825l14.715 5.547.048.015.042.019c1.235.465 1.83 1.773 1.327 2.915-.504 1.142-1.918 1.692-3.153 1.226l-19.77-7.453h-.003l-9.259-3.491a16.924 16.924 0 01-4.479-2.516 15.97 15.97 0 01-2.2-2.092 18.788 18.788 0 00-2.134-2.093 19.96 19.96 0 00-5.764-3.355l-1.877-.708 3.738-8.476 3.533-8.01.26.098c.246.092.596.224 1.537.257 1.177.049 3.123-.065 6.609-.52 2.371-.31 5.28-.758 8.676-1.335l.252-.043.48-.082.378-.066.436-.075.47-.082.38-.067.584-.103.303-.054.915-.163a751.854 751.854 0 0017.573-3.404c.038-.007.076-.011.114-.017.972-.133 1.925.387 2.204 1.226.098.295.109.596.047.879-.135.622-.625 1.16-1.324 1.36L47.31 54.263c-.611.175-1.037.686-1.065 1.276-.028.591.349 1.134.94 1.357L74.66 67.253a2.322 2.322 0 011.316 1.204c.25.55.254 1.159.01 1.712a2.317 2.317 0 01-1.302 1.216 2.592 2.592 0 01-.924.176h-.014c-.074 0-.147-.003-.22-.01-.022-.001-.044-.005-.066-.008a2.413 2.413 0 01-.168-.022c-.035-.006-.07-.016-.105-.023-.041-.01-.083-.017-.125-.029-.043-.011-.085-.027-.127-.04-.033-.012-.068-.021-.1-.034l-18.094-6.82c-.774-.292-1.658.051-1.973.767-.316.716.056 1.532.83 1.824l21.936 8.27c.15.056.29.125.423.205.395.242.705.585.893.998a2.063 2.063 0 01.01 1.712 2.182 2.182 0 01-.665.85l-.04.034a2.574 2.574 0 01-2.448.342l-2.102-.792z" fill="#323FEA"/></g><defs><clipPath id="clip0"><path fill="#fff" d="M0 0h106v98H0z"/></clipPath></defs></svg>