<svg width="94" height="90" fill="none" xmlns="http://www.w3.org/2000/svg"><path d="M48.469 54.644c2.526-.628 4.406-2.811 4.406-5.425 0-3.102-2.635-5.625-5.875-5.625-1.62 0-2.938-1.262-2.938-2.813 0-1.55 1.318-2.812 2.938-2.812s2.938 1.261 2.938 2.812h2.937c0-2.614-1.88-4.797-4.406-5.425v-3.012H45.53v3.012c-2.526.628-4.406 2.811-4.406 5.425 0 3.102 2.635 5.625 5.875 5.625 1.62 0 2.938 1.262 2.938 2.813 0 1.55-1.318 2.812-2.938 2.812s-2.938-1.261-2.938-2.812h-2.937c0 2.614 1.88 4.797 4.406 5.425v3.012h2.938v-3.012zM47 26.719c-10.528 0-19.094 8.201-19.094 18.281h2.938c0-8.529 7.248-15.469 16.156-15.469V26.72zM63.156 45c0 8.529-7.248 15.469-16.156 15.469v2.812c10.528 0 19.094-8.201 19.094-18.281h-2.938zM31.725 11.48a38.106 38.106 0 00-12.219 8.146l2.114 1.953a35.243 35.243 0 0111.281-7.522l-1.176-2.576zm6.112-1.982c-1.035.243-2.063.53-3.058.852l.942 2.665a36.954 36.954 0 012.818-.788l-.703-2.73zm6.111-.945a40.797 40.797 0 00-3.055.35l.464 2.777a35.363 35.363 0 012.82-.322l-.23-2.805z" fill="#323FEA"/><path d="M47 4.219c11.378 0 22.074 4.242 30.118 11.944.551.528 1.526.528 2.077 0l3.055-2.925v10.668H71.108l2.895-2.771a1.363 1.363 0 000-1.989C66.79 12.24 57.2 8.437 47 8.437v2.813c8.924 0 17.343 3.154 23.866 8.911l-4.342 4.157a1.363 1.363 0 00-.319 1.533c.228.526.764.868 1.358.868h16.156c.81 0 1.469-.629 1.469-1.407V9.845a1.41 1.41 0 00-.907-1.3 1.507 1.507 0 00-1.6.306l-4.54 4.346C69.672 5.583 58.671 1.406 47 1.406 21.895 1.406 1.469 20.962 1.469 45h2.937C4.406 22.514 23.513 4.219 47 4.219zm27.495 66.155l-2.114-1.953A35.244 35.244 0 0161.1 75.943l1.176 2.576a38.123 38.123 0 0012.219-8.145zM56.163 80.502a39.046 39.046 0 003.059-.852l-.944-2.665c-.916.297-1.865.561-2.816.788l.701 2.73zm-6.111.945a40.776 40.776 0 003.055-.35l-.464-2.777c-.946.146-1.895.254-2.82.322l.23 2.805z" fill="#323FEA"/><path d="M89.594 45c0 22.486-19.107 40.781-42.594 40.781-11.378 0-22.074-4.242-30.118-11.944-.551-.528-1.526-.528-2.077 0l-3.055 2.925V66.094h11.142l-2.895 2.772a1.363 1.363 0 000 1.988C27.21 77.76 36.8 81.563 47 81.563V78.75c-8.924 0-17.343-3.154-23.866-8.911l4.342-4.157c.42-.403.546-1.007.319-1.533a1.471 1.471 0 00-1.358-.868H10.282c-.81 0-1.469.629-1.469 1.407v15.468c0 .568.359 1.083.907 1.3.549.219 1.18.097 1.6-.306l4.54-4.346c8.468 7.613 19.469 11.79 31.141 11.79 25.105 0 45.531-19.556 45.531-43.594h-2.937z" fill="#323FEA"/><path d="M71.969 45c0-13.182-11.2-23.906-24.969-23.906-13.768 0-24.969 10.724-24.969 23.906 0 13.182 11.2 23.906 24.969 23.906 13.768 0 24.969-10.724 24.969-23.906zM47 66.094c-12.148 0-22.031-9.463-22.031-21.094 0-11.631 9.883-21.094 22.031-21.094S69.031 33.37 69.031 45c0 11.631-9.883 21.094-22.031 21.094z" fill="#323FEA"/></svg>