<svg width="96" height="99" fill="none" xmlns="http://www.w3.org/2000/svg"><path d="M92.719 6.755H3.28C1.472 6.755 0 8.273 0 10.14v11.91c0 1.875 2.813 1.875 2.813 0V10.14c0-.266.21-.483.468-.483H92.72c.258 0 .469.217.469.483v70.72c0 .266-.21.483-.47.483h-18.02v-3.018h14.144c.776 0 1.406-.65 1.406-1.45V61.688c0-1.876-2.813-1.876-2.813 0v13.736H74.698v-6.435l.135.012c1.167.106 2.62.238 3.625-.802 1.005-1.038.878-2.537.776-3.741-.11-1.293.008-1.646.972-2.472 2.48-2.127 2.526-4.405 0-6.57-.964-.827-1.082-1.18-.972-2.473.275-3.244-1.194-4.834-4.401-4.544-1.252.114-1.591-.009-2.39-1.002-2.058-2.564-4.268-2.612-6.366 0-.798.993-1.137 1.116-2.389 1.002-3.148-.285-4.682 1.239-4.4 4.544.109 1.293-.01 1.646-.973 2.472-2.48 2.127-2.526 4.405 0 6.57.964.827 1.082 1.18.972 2.473-.295 3.475 1.314 4.818 4.536 4.531v6.435H8.565v-59.85h78.87v38.38c0 1.874 2.813 1.874 2.813 0v-39.83c0-.802-.63-1.451-1.406-1.451H7.159c-.777 0-1.407.65-1.407 1.45v62.75c0 .802.63 1.45 1.407 1.45h56.664v3.019H3.28a.477.477 0 01-.469-.484V29.396c0-1.875-2.812-1.875-2.812 0v51.462c0 1.866 1.472 3.384 3.281 3.384h60.542v6.564c.2 1.192.867 1.63 2 1.315l3.437-1.649 3.438 1.65c.851.407 2-.238 2-1.316v-6.564h18.02c1.81 0 3.282-1.518 3.282-3.384V10.14c0-1.866-1.472-3.384-3.281-3.384zM63.442 66.112c-1.408.128-1.476.05-1.353-1.401.189-2.227-.308-3.526-1.976-4.956-1.141-.979-1.14-1.131 0-2.11 1.668-1.43 2.165-2.729 1.976-4.956-.123-1.45-.055-1.528 1.353-1.4 2.16.195 3.417-.32 4.8-2.043.946-1.176 1.09-1.176 2.036 0 1.383 1.722 2.641 2.238 4.8 2.042 1.409-.128 1.477-.05 1.354 1.401-.19 2.227.307 3.526 1.975 4.956 1.141.978 1.142 1.131 0 2.11-1.668 1.43-2.165 2.729-1.975 4.955.123 1.451.055 1.53-1.353 1.402-.883-.08-1.885-.171-2.767.207-.854.365-1.454 1.112-2.035 1.835-.273.34-.772.961-1.017 1.073-.245-.112-.744-.733-1.017-1.073-.58-.723-1.18-1.47-2.035-1.835a5.98 5.98 0 00-2.766-.207zm6.411 21.446a1.37 1.37 0 00-1.186 0l-2.032.975V70.676c.668.757 1.49 1.46 2.625 1.46s1.958-.703 2.625-1.46v17.857l-2.032-.975z" fill="#323FEA"/><path d="M18.237 27.712h48.477c1.819 0 1.819-2.9 0-2.9H18.237c-1.819 0-1.819 2.9 0 2.9zm60.933 7.371c0-.8-.63-1.45-1.407-1.45H18.237c-1.818 0-1.818 2.9 0 2.9h59.526c.777 0 1.406-.65 1.406-1.45zm-25.707 8.82c0-.8-.63-1.45-1.406-1.45h-33.82c-1.818 0-1.818 2.9 0 2.9h33.82c.777 0 1.406-.649 1.406-1.45zM34.997 64.118l-2.3.002c-1.475.002-2.287-.404-2.589-2.017-.275-1.472-2.334-1.285-2.712 0-.167.57-1.01 2.198-1.748 2.065-.39-.07-.56-.692-.705-1.014-.281-.626-.486-1.29-.661-1.955-.74-2.81-.888-5.744-1.351-8.608-.269-1.66-2.723-1.19-2.763.386-.126 5.022-.922 9.975-2.655 14.682-.644 1.746 2.074 2.501 2.712.77a41.985 41.985 0 001.61-5.559c.221.688.485 1.362.806 2.017.822 1.674 2.497 2.664 4.289 1.92.64-.266 1.223-.73 1.72-1.296 1.33 1.583 3.31 1.511 5.156 1.509 2.784-.004 5.568-.01 8.352-.019 1.81-.005 1.813-2.905 0-2.9-2.387.007-4.774.013-7.16.017zm34.263.246c3.029 0 5.493-2.54 5.493-5.664 0-3.123-2.464-5.664-5.493-5.664-3.028 0-5.492 2.541-5.492 5.664 0 3.123 2.464 5.664 5.492 5.664zm0-8.428c1.478 0 2.68 1.24 2.68 2.764 0 1.524-1.202 2.764-2.68 2.764-1.478 0-2.68-1.24-2.68-2.764 0-1.524 1.202-2.764 2.68-2.764z" fill="#323FEA"/></svg>