<svg width="102" height="101" fill="none" xmlns="http://www.w3.org/2000/svg"><g clip-path="url(#clip0)" fill="#323FEA"><path d="M30.723 58.998c-.43-.15-.868-.308-1.306-.472v-6.921c1.1.26 1.756.812 1.814.862a1.49 1.49 0 002.079-.093 1.454 1.454 0 00-.085-2.068c-.084-.077-1.496-1.337-3.808-1.68v-1.414a1.47 1.47 0 00-1.478-1.463 1.47 1.47 0 00-1.478 1.463v1.526a8.97 8.97 0 00-.67.171c-2.114.63-3.694 2.422-4.122 4.676-.391 2.055.273 4.036 1.735 5.171.774.601 1.737 1.152 3.057 1.734v8.775c-1.141-.083-1.932-.36-3.228-1.199a1.487 1.487 0 00-2.046.424 1.455 1.455 0 00.427 2.026c1.89 1.224 3.18 1.589 4.847 1.681v1.583a1.47 1.47 0 001.478 1.464 1.47 1.47 0 001.478-1.464v-1.699c3.316-.644 5.253-3.352 5.682-5.88.552-3.252-1.165-6.08-4.376-7.203zm-5.496-2.545c-.589-.458-.84-1.349-.654-2.326.167-.875.75-1.927 1.888-2.352v5.459a8.883 8.883 0 01-1.234-.781zm6.957 9.262c-.227 1.34-1.17 2.76-2.767 3.326v-7.397l.32.114c2.732.955 2.564 3.27 2.447 3.957z"/><path d="M101.919 57.114a3.413 3.413 0 00-2.179-2.471l-4.23-1.54a1.482 1.482 0 00-1.898.869 1.46 1.46 0 00.878 1.878l4.23 1.54c.22.08.29.256.311.353a.47.47 0 01-.132.45L61.136 95.586a.483.483 0 01-.455.132.478.478 0 01-.356-.309l-5.307-14.297a3.427 3.427 0 00-2.047-2.028L38.53 73.83a.476.476 0 01-.31-.353.471.471 0 01.132-.45l37.763-37.393a.483.483 0 01.454-.132.48.48 0 01.357.308l5.307 14.298a3.426 3.426 0 002.047 2.027l3.673 1.337a1.482 1.482 0 001.897-.87 1.46 1.46 0 00-.878-1.878L85.3 49.388a.488.488 0 01-.292-.29l-5.307-14.297a3.423 3.423 0 00-2.496-2.157 3.456 3.456 0 00-3.18.92l-1.43 1.416V20.46c0-1.883-1.547-3.415-3.448-3.415H54.094a7.007 7.007 0 00-1.294-8.21A7.153 7.153 0 0045.61 7.1a7.123 7.123 0 00-6.73-4.757A7.123 7.123 0 0032.152 7.1a7.145 7.145 0 00-7.192 1.735 6.966 6.966 0 00-2.084 4.983c0 1.142.274 2.242.788 3.228h-1.24a1.47 1.47 0 00-1.477 1.463 1.47 1.47 0 001.477 1.464h10.533v13.852a28.046 28.046 0 00-4.973-.448c-3.081 0-5.98.476-8.754 1.39l-11.11.001V20.46a.49.49 0 01.493-.488h6.739a1.47 1.47 0 001.478-1.464 1.47 1.47 0 00-1.478-1.463h-6.74c-1.902 0-3.449 1.532-3.449 3.415v24.576l.002.026A27.372 27.372 0 000 61.085c0 5.951 1.885 11.627 5.451 16.414.29.39.737.595 1.19.595.306 0 .613-.093.877-.286.657-.48.797-1.396.312-2.046a24.395 24.395 0 01-4.874-14.678c0-13.664 11.227-24.78 25.026-24.78 11.567 0 21.51 7.716 24.289 18.802l-2.502 2.477c-.749-4.601-2.964-8.839-6.399-12.15a22.06 22.06 0 00-15.388-6.202c-12.17 0-22.07 9.803-22.07 21.853s9.9 21.854 22.07 21.854a22.18 22.18 0 0013.796-4.808l3.168 1.153a25.212 25.212 0 01-16.964 6.582 25.218 25.218 0 01-15.736-5.526 1.488 1.488 0 00-2.08.215 1.454 1.454 0 00.218 2.059 28.2 28.2 0 0017.598 6.18 28.18 28.18 0 0020.04-8.391l3.929 1.43a.49.49 0 01.292.29l5.307 14.297a3.423 3.423 0 002.495 2.157 3.45 3.45 0 003.18-.92l37.764-37.393a3.379 3.379 0 00.93-3.149zm-93.8-15.526v-3.894h4.878a28.132 28.132 0 00-4.878 3.894zM69.64 20.46v14.307H44.804V19.972h24.344a.49.49 0 01.492.488zm-18.93-9.556a4.096 4.096 0 010 5.826 2.64 2.64 0 01-.408.315H43.1c2.145-3.996 2.701-5.951 2.845-6.934a4.183 4.183 0 014.764.793zM38.88 5.27c2.294 0 4.16 1.849 4.16 4.12 0 .423-.242 2.217-3.306 7.655h-1.708c-3.064-5.437-3.307-7.231-3.307-7.655 0-2.271 1.866-4.12 4.16-4.12zM27.05 16.73a4.073 4.073 0 01-1.22-2.913c0-1.1.434-2.135 1.22-2.913a4.177 4.177 0 014.764-.792c.143.983.7 2.937 2.845 6.933h-7.201a2.722 2.722 0 01-.409-.314zm8.862 3.242h5.936v14.795H36.73l-.02.001a28.21 28.21 0 00-.798-.246v-14.55zm9.56 19.497a27.792 27.792 0 00-2.51-1.775H69.64v.213l-5.721 5.665H49.646a27.962 27.962 0 00-4.175-4.103zm6.285 7.03h9.206l-6.3 6.237a27.592 27.592 0 00-2.906-6.237zM27.982 80.011c-10.54 0-19.114-8.49-19.114-18.926 0-10.436 8.575-18.927 19.114-18.927 10.147 0 18.65 8.09 19.095 18.092L36.263 70.957a3.378 3.378 0 00-.93 3.149 3.411 3.411 0 002.179 2.471l.932.34a19.22 19.22 0 01-10.462 3.094z"/><path d="M72.472 77.94c.186 0 .376-.035.559-.11a1.458 1.458 0 00.808-1.908l-8.51-20.615a1.483 1.483 0 00-1.927-.801 1.458 1.458 0 00-.81 1.908l8.511 20.615c.234.567.786.91 1.369.91zM54.9 61.41c-1.036 1.025-1.542 2.433-1.426 3.965.11 1.448.773 2.843 1.867 3.926 1.094 1.084 2.502 1.74 3.965 1.849.145.01.29.016.432.016 1.378 0 2.634-.5 3.572-1.428 1.036-1.026 1.542-2.434 1.426-3.965-.11-1.45-.772-2.844-1.866-3.927-1.094-1.083-2.503-1.74-3.966-1.848-1.548-.116-2.969.386-4.004 1.412zm5.88 2.506c.593.588.952 1.325 1.009 2.076.05.667-.152 1.263-.57 1.676-.416.413-1.018.612-1.692.563-.758-.056-1.502-.411-2.096-1-.594-.587-.953-1.325-1.01-2.075-.05-.668.152-1.263.57-1.676.374-.372.898-.57 1.49-.57.067 0 .134.002.202.007.758.056 1.502.41 2.096.999zm17.296 8.948c1.378 0 2.634-.5 3.572-1.428 2.076-2.056 1.878-5.596-.44-7.892-2.319-2.296-5.894-2.492-7.97-.436-2.076 2.055-1.878 5.595.44 7.89 1.095 1.084 2.503 1.74 3.966 1.85.146.01.29.016.432.016zm-2.747-7.687c.391-.387.922-.575 1.493-.575.775 0 1.624.347 2.296 1.012 1.166 1.154 1.363 2.838.44 3.752-.417.413-1.019.613-1.693.563-.757-.056-1.502-.411-2.096-1-1.166-1.154-1.364-2.838-.44-3.752z"/></g><defs><clipPath id="clip0"><path fill="#fff" d="M0 0h102v101H0z"/></clipPath></defs></svg>